<?xml version="1.0" encoding="utf-8"?>
<svg id="svg" version="1.1" width="100%" height="100%" preserveAspectRatio="none" viewBox="0 0 530 64.4194756554307" xmlns="http://www.w3.org/2000/svg">
  <path id="path1" d="M 177.468 8.287 C 176.62 8.318 173.15 8.502 169.757 8.696 C 163.74 9.04 161.819 9.052 91.553 9.196 C 51.932 9.278 19 9.349 18.369 9.366 C 14.107 9.482 10.705 9.563 15.407 9.479 L 16.588 10.102 C 17.443 11.01 18.226 15.282 23.634 17.451 C 38.085 23.249 30.279 23.076 28.459 26.034 C 27.528 27.545 35.088 27.274 25.57 32.443 C 16.562 37.333 17.815 39.906 25.93 43.143 C 40.102 48.797 39.289 51.119 40.018 53.631 L 40.976 53.578 L 41.985 53.477 C 43.03 53.235 72.7 53.747 277.702 53.719 C 512.511 53.688 504.894 53.712 508.64 52.987 C 513.726 52.003 517.294 49.441 518.482 45.921 C 519.425 43.127 519.965 24.275 519.249 19.202 C 518.313 12.581 515.028 9.888 506.261 8.549 C 504.554 8.288 184.415 8.033 177.468 8.287" stroke="none" fill="#4cbb6c" fill-rule="evenodd" style=""/>
  <path id="path2" d="M 1.761 8.021 L 1.351 9.734 C 1.226 9.734 1.824 11.84 2.033 11.84 C 4.909 14.802 10.58 18.053 17.938 21.814 C 22.402 24.096 22.155 24.967 15.833 29.224 C 7.927 34.549 6.161 36.318 6.17 38.902 C 6.182 42.101 8.506 43.897 20.583 50.042 C 35.033 57.395 35.625 58.65 39.842 56.904 C 41.4 56.259 41.985 54.919 41.758 53.383 C 41.326 50.457 35.543 47.254 25.089 41.741 C 18.949 38.504 19.007 37.807 25.821 32.917 C 39.447 23.138 39.568 22.327 24.657 14.423 C 20.281 12.104 18.448 10.899 16.917 9.802 C 16.561 9.547 14.462 8.298 12.351 7.276 C 8.679 5.498 5.297 5 3.939 6.055" stroke="none" fill="#2d94bc" fill-rule="evenodd"/>
</svg>
